<?xml version="1.0" encoding="UTF-8" standalone="no"?>
<!DOCTYPE svg PUBLIC "-//W3C//DTD SVG 1.1//EN"
 "http://www.w3.org/Graphics/SVG/1.1/DTD/svg11.dtd">
<!-- Generated by graphviz version 12.2.1 (20241206.2353)
 -->
<!-- Title: RenderGraph Pages: 1 -->
<svg width="5819pt" height="511pt"
 viewBox="0.00 0.00 5818.75 511.00" xmlns="http://www.w3.org/2000/svg" xmlns:xlink="http://www.w3.org/1999/xlink">
<g id="graph0" class="graph" transform="scale(1 1) rotate(0) translate(4 507)">
<title>RenderGraph</title>
<polygon fill="#0d1117" stroke="none" points="-4,4 -4,-507 5814.75,-507 5814.75,4 -4,4"/>
<g id="clust1" class="cluster">
<title>cluster_Core2d</title>
<path fill="#343a42" stroke="#343a42" d="M40.25,-8C40.25,-8 3742.25,-8 3742.25,-8 3748.25,-8 3754.25,-14 3754.25,-20 3754.25,-20 3754.25,-199 3754.25,-199 3754.25,-205 3748.25,-211 3742.25,-211 3742.25,-211 40.25,-211 40.25,-211 34.25,-211 28.25,-205 28.25,-199 28.25,-199 28.25,-20 28.25,-20 28.25,-14 34.25,-8 40.25,-8"/>
<text text-anchor="middle" x="1891.25" y="-193.7" font-family="Times New Roman,serif" font-size="14.00" fill="white">Core2d</text>
</g>
<g id="clust2" class="cluster">
<title>cluster_Core2d_SubGraphUi</title>
<path fill="#6f90ad" stroke="#6f90ad" d="M102.12,-16C102.12,-16 175.62,-16 175.62,-16 181.62,-16 187.62,-22 187.62,-28 187.62,-28 187.62,-87 187.62,-87 187.62,-93 181.62,-99 175.62,-99 175.62,-99 102.12,-99 102.12,-99 96.12,-99 90.12,-93 90.12,-87 90.12,-87 90.12,-28 90.12,-28 90.12,-22 96.12,-16 102.12,-16"/>
<text text-anchor="middle" x="138.88" y="-81.7" font-family="Times New Roman,serif" font-size="14.00">SubGraphUi</text>
</g>
<g id="clust3" class="cluster">
<title>cluster_Core3d</title>
<path fill="#343a42" stroke="#343a42" d="M20,-219C20,-219 5790.75,-219 5790.75,-219 5796.75,-219 5802.75,-225 5802.75,-231 5802.75,-231 5802.75,-441 5802.75,-441 5802.75,-447 5796.75,-453 5790.75,-453 5790.75,-453 20,-453 20,-453 14,-453 8,-447 8,-441 8,-441 8,-231 8,-231 8,-225 14,-219 20,-219"/>
<text text-anchor="middle" x="2905.38" y="-435.7" font-family="Times New Roman,serif" font-size="14.00" fill="white">Core3d</text>
</g>
<g id="clust4" class="cluster">
<title>cluster_Core3d_SubGraphUi</title>
<path fill="#6f90ad" stroke="#6f90ad" d="M102.12,-227C102.12,-227 175.62,-227 175.62,-227 181.62,-227 187.62,-233 187.62,-239 187.62,-239 187.62,-298 187.62,-298 187.62,-304 181.62,-310 175.62,-310 175.62,-310 102.12,-310 102.12,-310 96.12,-310 90.12,-304 90.12,-298 90.12,-298 90.12,-239 90.12,-239 90.12,-233 96.12,-227 102.12,-227"/>
<text text-anchor="middle" x="138.88" y="-292.7" font-family="Times New Roman,serif" font-size="14.00">SubGraphUi</text>
</g>
<!-- _Core2d_SubGraphUi__Core2d_SubGraphUiUiPass -->
<g id="node1" class="node">
<title>_Core2d_SubGraphUi__Core2d_SubGraphUiUiPass</title>
<text text-anchor="start" x="117.5" y="-44.7" font-family="Helvetica,sans-Serif" font-size="14.00" fill="white">UiPass</text>
<text text-anchor="start" x="111.12" y="-34.5" font-family="Helvetica,sans-Serif" font-size="10.00" fill="red">UiPassNode</text>
<path fill="none" stroke="white" d="M117.46,-28C117.46,-28 160.29,-28 160.29,-28 165.96,-28 171.62,-33.67 171.62,-39.33 171.62,-39.33 171.62,-50.67 171.62,-50.67 171.62,-56.33 165.96,-62 160.29,-62 160.29,-62 117.46,-62 117.46,-62 111.79,-62 106.12,-56.33 106.12,-50.67 106.12,-50.67 106.12,-39.33 106.12,-39.33 106.12,-33.67 111.79,-28 117.46,-28"/>
</g>
<!-- _Core2d__Core2dContrastAdaptiveSharpening -->
<g id="node2" class="node">
<title>_Core2d__Core2dContrastAdaptiveSharpening</title>
<text text-anchor="start" x="2775.5" y="-116.7" font-family="Helvetica,sans-Serif" font-size="14.00" fill="white">ContrastAdaptiveSharpening</text>
<text text-anchor="start" x="2841.12" y="-106.5" font-family="Helvetica,sans-Serif" font-size="10.00" fill="red">CasNode</text>
<path fill="none" stroke="white" d="M2781.83,-100C2781.83,-100 2941.67,-100 2941.67,-100 2947.33,-100 2953,-105.67 2953,-111.33 2953,-111.33 2953,-122.67 2953,-122.67 2953,-128.33 2947.33,-134 2941.67,-134 2941.67,-134 2781.83,-134 2781.83,-134 2776.17,-134 2770.5,-128.33 2770.5,-122.67 2770.5,-122.67 2770.5,-111.33 2770.5,-111.33 2770.5,-105.67 2776.17,-100 2781.83,-100"/>
</g>
<!-- _Core2d__Core2dEndMainPassPostProcessing -->
<g id="node4" class="node">
<title>_Core2d__Core2dEndMainPassPostProcessing</title>
<text text-anchor="start" x="3046" y="-76.7" font-family="Helvetica,sans-Serif" font-size="14.00" fill="white">EndMainPassPostProcessing</text>
<text text-anchor="start" x="3109" y="-66.5" font-family="Helvetica,sans-Serif" font-size="10.00" fill="red">EmptyNode</text>
<path fill="none" stroke="white" d="M3052.33,-60C3052.33,-60 3217.42,-60 3217.42,-60 3223.08,-60 3228.75,-65.67 3228.75,-71.33 3228.75,-71.33 3228.75,-82.67 3228.75,-82.67 3228.75,-88.33 3223.08,-94 3217.42,-94 3217.42,-94 3052.33,-94 3052.33,-94 3046.67,-94 3041,-88.33 3041,-82.67 3041,-82.67 3041,-71.33 3041,-71.33 3041,-65.67 3046.67,-60 3052.33,-60"/>
</g>
<!-- _Core2d__Core2dContrastAdaptiveSharpening&#45;&gt;_Core2d__Core2dEndMainPassPostProcessing -->
<g id="edge6" class="edge">
<title>_Core2d__Core2dContrastAdaptiveSharpening:e&#45;&gt;_Core2d__Core2dEndMainPassPostProcessing:w</title>
<path fill="none" stroke="white" d="M2951,-117C2991.58,-117 2997.57,-83.86 3031.93,-77.91"/>
<polygon fill="white" stroke="white" points="3031.81,-81.43 3041.49,-77.12 3031.24,-74.46 3031.81,-81.43"/>
</g>
<!-- _Core2d__Core2dEndMainPass -->
<g id="node3" class="node">
<title>_Core2d__Core2dEndMainPass</title>
<text text-anchor="start" x="1293.25" y="-96.7" font-family="Helvetica,sans-Serif" font-size="14.00" fill="white">EndMainPass</text>
<text text-anchor="start" x="1309.38" y="-86.5" font-family="Helvetica,sans-Serif" font-size="10.00" fill="red">EmptyNode</text>
<path fill="none" stroke="white" d="M1299.58,-80C1299.58,-80 1370.92,-80 1370.92,-80 1376.58,-80 1382.25,-85.67 1382.25,-91.33 1382.25,-91.33 1382.25,-102.67 1382.25,-102.67 1382.25,-108.33 1376.58,-114 1370.92,-114 1370.92,-114 1299.58,-114 1299.58,-114 1293.92,-114 1288.25,-108.33 1288.25,-102.67 1288.25,-102.67 1288.25,-91.33 1288.25,-91.33 1288.25,-85.67 1293.92,-80 1299.58,-80"/>
</g>
<!-- _Core2d__Core2dUiPass -->
<g id="node6" class="node">
<title>_Core2d__Core2dUiPass</title>
<text text-anchor="start" x="3379.5" y="-36.7" font-family="Helvetica,sans-Serif" font-size="14.00" fill="white">UiPass</text>
<text text-anchor="start" x="3349.88" y="-26.5" font-family="Helvetica,sans-Serif" font-size="10.00" fill="red">RunGraphOnViewNode</text>
<path fill="none" stroke="white" d="M3356.21,-20C3356.21,-20 3445.54,-20 3445.54,-20 3451.21,-20 3456.88,-25.67 3456.88,-31.33 3456.88,-31.33 3456.88,-42.67 3456.88,-42.67 3456.88,-48.33 3451.21,-54 3445.54,-54 3445.54,-54 3356.21,-54 3356.21,-54 3350.54,-54 3344.88,-48.33 3344.88,-42.67 3344.88,-42.67 3344.88,-31.33 3344.88,-31.33 3344.88,-25.67 3350.54,-20 3356.21,-20"/>
</g>
<!-- _Core2d__Core2dEndMainPass&#45;&gt;_Core2d__Core2dUiPass -->
<g id="edge9" class="edge">
<title>_Core2d__Core2dEndMainPass:e&#45;&gt;_Core2d__Core2dUiPass:w</title>
<path fill="none" stroke="white" d="M1380.25,-97C1421.7,-97 1424.48,-67.8 1464.5,-57 1668.82,-1.84 1727.36,-17 1939,-17 1939,-17 1939,-17 2862.75,-17 3074.31,-17 3129.6,-36.3 3335.67,-36.98"/>
<polygon fill="white" stroke="white" points="3335.36,-40.48 3345.36,-37 3335.37,-33.48 3335.36,-40.48"/>
</g>
<!-- _Core2d__Core2dBloom -->
<g id="node7" class="node">
<title>_Core2d__Core2dBloom</title>
<text text-anchor="start" x="1590.38" y="-86.7" font-family="Helvetica,sans-Serif" font-size="14.00" fill="white">Bloom</text>
<text text-anchor="start" x="1540.12" y="-76.5" font-family="Helvetica,sans-Serif" font-size="10.00" fill="red">ViewNodeRunner&lt;BloomNode&gt;</text>
<path fill="none" stroke="white" d="M1546.46,-70C1546.46,-70 1673.29,-70 1673.29,-70 1678.96,-70 1684.62,-75.67 1684.62,-81.33 1684.62,-81.33 1684.62,-92.67 1684.62,-92.67 1684.62,-98.33 1678.96,-104 1673.29,-104 1673.29,-104 1546.46,-104 1546.46,-104 1540.79,-104 1535.12,-98.33 1535.12,-92.67 1535.12,-92.67 1535.12,-81.33 1535.12,-81.33 1535.12,-75.67 1540.79,-70 1546.46,-70"/>
</g>
<!-- _Core2d__Core2dEndMainPass&#45;&gt;_Core2d__Core2dBloom -->
<g id="edge11" class="edge">
<title>_Core2d__Core2dEndMainPass:e&#45;&gt;_Core2d__Core2dBloom:w</title>
<path fill="none" stroke="white" d="M1380.25,-97C1446.16,-97 1465.15,-88.1 1525.74,-87.09"/>
<polygon fill="white" stroke="white" points="1525.64,-90.59 1535.61,-87.01 1525.58,-83.59 1525.64,-90.59"/>
</g>
<!-- _Core2d__Core2dTonemapping -->
<g id="node14" class="node">
<title>_Core2d__Core2dTonemapping</title>
<text text-anchor="start" x="2209" y="-106.7" font-family="Helvetica,sans-Serif" font-size="14.00" fill="white">Tonemapping</text>
<text text-anchor="start" x="2165.12" y="-96.5" font-family="Helvetica,sans-Serif" font-size="10.00" fill="red">ViewNodeRunner&lt;TonemappingNode&gt;</text>
<path fill="none" stroke="white" d="M2171.46,-90C2171.46,-90 2328.29,-90 2328.29,-90 2333.96,-90 2339.62,-95.67 2339.62,-101.33 2339.62,-101.33 2339.62,-112.67 2339.62,-112.67 2339.62,-118.33 2333.96,-124 2328.29,-124 2328.29,-124 2171.46,-124 2171.46,-124 2165.79,-124 2160.12,-118.33 2160.12,-112.67 2160.12,-112.67 2160.12,-101.33 2160.12,-101.33 2160.12,-95.67 2165.79,-90 2171.46,-90"/>
</g>
<!-- _Core2d__Core2dEndMainPass&#45;&gt;_Core2d__Core2dTonemapping -->
<g id="edge17" class="edge">
<title>_Core2d__Core2dEndMainPass:e&#45;&gt;_Core2d__Core2dTonemapping:w</title>
<path fill="none" stroke="white" d="M1380.25,-97C1418.74,-97 1426.28,-112.53 1464.5,-117 1768.72,-152.61 1850.06,-108.11 2150.87,-107.02"/>
<polygon fill="white" stroke="white" points="2150.62,-110.52 2160.61,-107 2150.61,-103.52 2150.62,-110.52"/>
</g>
<!-- _Core2d__Core2dEndMainPassPostProcessing&#45;&gt;_Core2d__Core2dUiPass -->
<g id="edge10" class="edge">
<title>_Core2d__Core2dEndMainPassPostProcessing:e&#45;&gt;_Core2d__Core2dUiPass:w</title>
<path fill="none" stroke="white" d="M3226.75,-77C3278.95,-77 3289.25,-42.57 3335.4,-37.6"/>
<polygon fill="white" stroke="white" points="3335.56,-41.09 3345.36,-37.08 3335.2,-34.1 3335.56,-41.09"/>
</g>
<!-- _Core2d__Core2dUpscaling -->
<g id="node15" class="node">
<title>_Core2d__Core2dUpscaling</title>
<text text-anchor="start" x="3626" y="-56.7" font-family="Helvetica,sans-Serif" font-size="14.00" fill="white">Upscaling</text>
<text text-anchor="start" x="3578" y="-46.5" font-family="Helvetica,sans-Serif" font-size="10.00" fill="red">ViewNodeRunner&lt;UpscalingNode&gt;</text>
<path fill="none" stroke="white" d="M3584.33,-40C3584.33,-40 3726.92,-40 3726.92,-40 3732.58,-40 3738.25,-45.67 3738.25,-51.33 3738.25,-51.33 3738.25,-62.67 3738.25,-62.67 3738.25,-68.33 3732.58,-74 3726.92,-74 3726.92,-74 3584.33,-74 3584.33,-74 3578.67,-74 3573,-68.33 3573,-62.67 3573,-62.67 3573,-51.33 3573,-51.33 3573,-45.67 3578.67,-40 3584.33,-40"/>
</g>
<!-- _Core2d__Core2dEndMainPassPostProcessing&#45;&gt;_Core2d__Core2dUpscaling -->
<g id="edge20" class="edge">
<title>_Core2d__Core2dEndMainPassPostProcessing:e&#45;&gt;_Core2d__Core2dUpscaling:w</title>
<path fill="none" stroke="white" d="M3226.75,-77C3345.17,-77 3374.96,-76.4 3493,-67 3525.45,-64.42 3535.96,-58.55 3563.52,-57.26"/>
<polygon fill="white" stroke="white" points="3563.57,-60.76 3573.49,-57.03 3563.41,-53.76 3563.57,-60.76"/>
</g>
<!-- _Core2d__Core2dStartMainPass -->
<g id="node5" class="node">
<title>_Core2d__Core2dStartMainPass</title>
<text text-anchor="start" x="411.62" y="-124.7" font-family="Helvetica,sans-Serif" font-size="14.00" fill="white">StartMainPass</text>
<text text-anchor="start" x="430" y="-114.5" font-family="Helvetica,sans-Serif" font-size="10.00" fill="red">EmptyNode</text>
<path fill="none" stroke="white" d="M417.96,-108C417.96,-108 493.79,-108 493.79,-108 499.46,-108 505.12,-113.67 505.12,-119.33 505.12,-119.33 505.12,-130.67 505.12,-130.67 505.12,-136.33 499.46,-142 493.79,-142 493.79,-142 417.96,-142 417.96,-142 412.29,-142 406.62,-136.33 406.62,-130.67 406.62,-130.67 406.62,-119.33 406.62,-119.33 406.62,-113.67 412.29,-108 417.96,-108"/>
</g>
<!-- _Core2d__Core2dMainOpaquePass -->
<g id="node8" class="node">
<title>_Core2d__Core2dMainOpaquePass</title>
<text text-anchor="start" x="715.88" y="-121.7" font-family="Helvetica,sans-Serif" font-size="14.00" fill="white">MainOpaquePass</text>
<text text-anchor="start" x="670.5" y="-111.5" font-family="Helvetica,sans-Serif" font-size="10.00" fill="red">ViewNodeRunner&lt;MainOpaquePass2dNode&gt;</text>
<path fill="none" stroke="white" d="M676.83,-105C676.83,-105 863.67,-105 863.67,-105 869.33,-105 875,-110.67 875,-116.33 875,-116.33 875,-127.67 875,-127.67 875,-133.33 869.33,-139 863.67,-139 863.67,-139 676.83,-139 676.83,-139 671.17,-139 665.5,-133.33 665.5,-127.67 665.5,-127.67 665.5,-116.33 665.5,-116.33 665.5,-110.67 671.17,-105 676.83,-105"/>
</g>
<!-- _Core2d__Core2dStartMainPass&#45;&gt;_Core2d__Core2dMainOpaquePass -->
<g id="edge12" class="edge">
<title>_Core2d__Core2dStartMainPass:e&#45;&gt;_Core2d__Core2dMainOpaquePass:w</title>
<path fill="none" stroke="white" d="M503.12,-125C572.34,-125 592.36,-122.31 656.38,-122.02"/>
<polygon fill="white" stroke="white" points="655.99,-125.53 665.99,-122 655.98,-118.53 655.99,-125.53"/>
</g>
<!-- _Core2d__Core2dUiPass&#45;&gt;_Core2d__Core2dUpscaling -->
<g id="edge21" class="edge">
<title>_Core2d__Core2dUiPass:e&#45;&gt;_Core2d__Core2dUpscaling:w</title>
<path fill="none" stroke="white" d="M3454.88,-37C3504.98,-37 3518.88,-54.14 3563.61,-56.69"/>
<polygon fill="white" stroke="white" points="3563.39,-60.18 3573.49,-56.96 3563.59,-53.18 3563.39,-60.18"/>
</g>
<!-- _Core2d__Core2dPostProcessing -->
<g id="node12" class="node">
<title>_Core2d__Core2dPostProcessing</title>
<text text-anchor="start" x="1893.12" y="-66.7" font-family="Helvetica,sans-Serif" font-size="14.00" fill="white">PostProcessing</text>
<text text-anchor="start" x="1849.62" y="-56.5" font-family="Helvetica,sans-Serif" font-size="10.00" fill="red">ViewNodeRunner&lt;PostProcessingNode&gt;</text>
<path fill="none" stroke="white" d="M1855.96,-50C1855.96,-50 2024.04,-50 2024.04,-50 2029.71,-50 2035.38,-55.67 2035.38,-61.33 2035.38,-61.33 2035.38,-72.67 2035.38,-72.67 2035.38,-78.33 2029.71,-84 2024.04,-84 2024.04,-84 1855.96,-84 1855.96,-84 1850.29,-84 1844.62,-78.33 1844.62,-72.67 1844.62,-72.67 1844.62,-61.33 1844.62,-61.33 1844.62,-55.67 1850.29,-50 1855.96,-50"/>
</g>
<!-- _Core2d__Core2dBloom&#45;&gt;_Core2d__Core2dPostProcessing -->
<g id="edge15" class="edge">
<title>_Core2d__Core2dBloom:e&#45;&gt;_Core2d__Core2dPostProcessing:w</title>
<path fill="none" stroke="white" d="M1682.62,-87C1752.18,-87 1771.23,-69.05 1835.46,-67.16"/>
<polygon fill="white" stroke="white" points="1835.16,-70.67 1845.11,-67.02 1835.06,-63.67 1835.16,-70.67"/>
</g>
<!-- _Core2d__Core2dBloom&#45;&gt;_Core2d__Core2dTonemapping -->
<g id="edge18" class="edge">
<title>_Core2d__Core2dBloom:e&#45;&gt;_Core2d__Core2dTonemapping:w</title>
<path fill="none" stroke="white" d="M1682.62,-87C1747.06,-87 1762.9,-93.82 1827.25,-97 1972.19,-104.17 2011.26,-106.86 2151,-106.99"/>
<polygon fill="white" stroke="white" points="2150.61,-110.49 2160.61,-107 2150.61,-103.49 2150.61,-110.49"/>
</g>
<!-- _Core2d__Core2dMainTransparentPass -->
<g id="node9" class="node">
<title>_Core2d__Core2dMainTransparentPass</title>
<text text-anchor="start" x="1017.88" y="-101.7" font-family="Helvetica,sans-Serif" font-size="14.00" fill="white">MainTransparentPass</text>
<text text-anchor="start" x="975.5" y="-91.5" font-family="Helvetica,sans-Serif" font-size="10.00" fill="red">ViewNodeRunner&lt;MainTransparentPass2dNode&gt;</text>
<path fill="none" stroke="white" d="M981.83,-85C981.83,-85 1186.67,-85 1186.67,-85 1192.33,-85 1198,-90.67 1198,-96.33 1198,-96.33 1198,-107.67 1198,-107.67 1198,-113.33 1192.33,-119 1186.67,-119 1186.67,-119 981.83,-119 981.83,-119 976.17,-119 970.5,-113.33 970.5,-107.67 970.5,-107.67 970.5,-96.33 970.5,-96.33 970.5,-90.67 976.17,-85 981.83,-85"/>
</g>
<!-- _Core2d__Core2dMainOpaquePass&#45;&gt;_Core2d__Core2dMainTransparentPass -->
<g id="edge13" class="edge">
<title>_Core2d__Core2dMainOpaquePass:e&#45;&gt;_Core2d__Core2dMainTransparentPass:w</title>
<path fill="none" stroke="white" d="M873,-122C914.05,-122 925.44,-105.43 961.16,-102.46"/>
<polygon fill="white" stroke="white" points="961.14,-105.96 970.99,-102.06 960.86,-98.96 961.14,-105.96"/>
</g>
<!-- _Core2d__Core2dMainTransparentPass&#45;&gt;_Core2d__Core2dEndMainPass -->
<g id="edge3" class="edge">
<title>_Core2d__Core2dMainTransparentPass:e&#45;&gt;_Core2d__Core2dEndMainPass:w</title>
<path fill="none" stroke="white" d="M1196,-102C1233.85,-102 1245.98,-97.93 1278.81,-97.13"/>
<polygon fill="white" stroke="white" points="1278.78,-100.63 1288.74,-97.02 1278.7,-93.63 1278.78,-100.63"/>
</g>
<!-- _Core2d__Core2dFxaa -->
<g id="node10" class="node">
<title>_Core2d__Core2dFxaa</title>
<text text-anchor="start" x="2553.75" y="-76.7" font-family="Helvetica,sans-Serif" font-size="14.00" fill="white">Fxaa</text>
<text text-anchor="start" x="2502" y="-66.5" font-family="Helvetica,sans-Serif" font-size="10.00" fill="red">ViewNodeRunner&lt;FxaaNode&gt;</text>
<path fill="none" stroke="white" d="M2508.33,-60C2508.33,-60 2629.17,-60 2629.17,-60 2634.83,-60 2640.5,-65.67 2640.5,-71.33 2640.5,-71.33 2640.5,-82.67 2640.5,-82.67 2640.5,-88.33 2634.83,-94 2629.17,-94 2629.17,-94 2508.33,-94 2508.33,-94 2502.67,-94 2497,-88.33 2497,-82.67 2497,-82.67 2497,-71.33 2497,-71.33 2497,-65.67 2502.67,-60 2508.33,-60"/>
</g>
<!-- _Core2d__Core2dFxaa&#45;&gt;_Core2d__Core2dContrastAdaptiveSharpening -->
<g id="edge2" class="edge">
<title>_Core2d__Core2dFxaa:e&#45;&gt;_Core2d__Core2dContrastAdaptiveSharpening:w</title>
<path fill="none" stroke="white" d="M2638.5,-77C2696.65,-77 2708.88,-112.01 2761.11,-116.52"/>
<polygon fill="white" stroke="white" points="2760.85,-120.02 2770.99,-116.94 2761.14,-113.02 2760.85,-120.02"/>
</g>
<!-- _Core2d__Core2dFxaa&#45;&gt;_Core2d__Core2dEndMainPassPostProcessing -->
<g id="edge5" class="edge">
<title>_Core2d__Core2dFxaa:e&#45;&gt;_Core2d__Core2dEndMainPassPostProcessing:w</title>
<path fill="none" stroke="white" d="M2638.5,-77C2814.42,-77 2861.23,-77 3031.6,-77"/>
<polygon fill="white" stroke="white" points="3031.49,-80.5 3041.49,-77 3031.49,-73.5 3031.49,-80.5"/>
</g>
<!-- _Core2d__Core2dMsaaWriteback -->
<g id="node11" class="node">
<title>_Core2d__Core2dMsaaWriteback</title>
<text text-anchor="start" x="92" y="-127.7" font-family="Helvetica,sans-Serif" font-size="14.00" fill="white">MsaaWriteback</text>
<text text-anchor="start" x="49.25" y="-117.5" font-family="Helvetica,sans-Serif" font-size="10.00" fill="red">ViewNodeRunner&lt;MsaaWritebackNode&gt;</text>
<path fill="none" stroke="white" d="M55.58,-111C55.58,-111 222.17,-111 222.17,-111 227.83,-111 233.5,-116.67 233.5,-122.33 233.5,-122.33 233.5,-133.67 233.5,-133.67 233.5,-139.33 227.83,-145 222.17,-145 222.17,-145 55.58,-145 55.58,-145 49.92,-145 44.25,-139.33 44.25,-133.67 44.25,-133.67 44.25,-122.33 44.25,-122.33 44.25,-116.67 49.92,-111 55.58,-111"/>
</g>
<!-- _Core2d__Core2dMsaaWriteback&#45;&gt;_Core2d__Core2dStartMainPass -->
<g id="edge8" class="edge">
<title>_Core2d__Core2dMsaaWriteback:e&#45;&gt;_Core2d__Core2dStartMainPass:w</title>
<path fill="none" stroke="white" d="M231.5,-128C306.39,-128 327.83,-125.29 397.5,-125.02"/>
<polygon fill="white" stroke="white" points="397.12,-128.52 407.11,-125 397.1,-121.52 397.12,-128.52"/>
</g>
<!-- _Core2d__Core2dPostProcessing&#45;&gt;_Core2d__Core2dTonemapping -->
<g id="edge19" class="edge">
<title>_Core2d__Core2dPostProcessing:e&#45;&gt;_Core2d__Core2dTonemapping:w</title>
<path fill="none" stroke="white" d="M2033.38,-67C2089.32,-67 2100.8,-101.86 2150.83,-106.49"/>
<polygon fill="white" stroke="white" points="2150.47,-109.98 2160.61,-106.93 2150.78,-102.99 2150.47,-109.98"/>
</g>
<!-- _Core2d__Core2dSmaa -->
<g id="node13" class="node">
<title>_Core2d__Core2dSmaa</title>
<text text-anchor="start" x="2550.75" y="-156.7" font-family="Helvetica,sans-Serif" font-size="14.00" fill="white">Smaa</text>
<text text-anchor="start" x="2500.12" y="-146.5" font-family="Helvetica,sans-Serif" font-size="10.00" fill="red">ViewNodeRunner&lt;SmaaNode&gt;</text>
<path fill="none" stroke="white" d="M2506.46,-140C2506.46,-140 2631.04,-140 2631.04,-140 2636.71,-140 2642.38,-145.67 2642.38,-151.33 2642.38,-151.33 2642.38,-162.67 2642.38,-162.67 2642.38,-168.33 2636.71,-174 2631.04,-174 2631.04,-174 2506.46,-174 2506.46,-174 2500.79,-174 2495.12,-168.33 2495.12,-162.67 2495.12,-162.67 2495.12,-151.33 2495.12,-151.33 2495.12,-145.67 2500.79,-140 2506.46,-140"/>
</g>
<!-- _Core2d__Core2dSmaa&#45;&gt;_Core2d__Core2dEndMainPassPostProcessing -->
<g id="edge7" class="edge">
<title>_Core2d__Core2dSmaa:e&#45;&gt;_Core2d__Core2dEndMainPassPostProcessing:w</title>
<path fill="none" stroke="white" d="M2640.38,-157C2782.94,-157 2828.02,-198.41 2961,-147 3001.85,-131.21 2996.5,-85.8 3031.87,-78.11"/>
<polygon fill="white" stroke="white" points="3031.89,-81.63 3041.49,-77.15 3031.2,-74.66 3031.89,-81.63"/>
</g>
<!-- _Core2d__Core2dTonemapping&#45;&gt;_Core2d__Core2dContrastAdaptiveSharpening -->
<g id="edge1" class="edge">
<title>_Core2d__Core2dTonemapping:e&#45;&gt;_Core2d__Core2dContrastAdaptiveSharpening:w</title>
<path fill="none" stroke="white" d="M2337.62,-107C2527.08,-107 2577.18,-116.6 2761.06,-116.99"/>
<polygon fill="white" stroke="white" points="2760.98,-120.49 2770.99,-117 2760.99,-113.49 2760.98,-120.49"/>
</g>
<!-- _Core2d__Core2dTonemapping&#45;&gt;_Core2d__Core2dEndMainPassPostProcessing -->
<g id="edge4" class="edge">
<title>_Core2d__Core2dTonemapping:e&#45;&gt;_Core2d__Core2dEndMainPassPostProcessing:w</title>
<path fill="none" stroke="white" d="M2337.62,-107C2393.07,-107 2393.29,-60.76 2447,-47 2571.95,-14.98 2892.23,-73.63 3031.68,-76.86"/>
<polygon fill="white" stroke="white" points="3031.44,-80.36 3041.49,-76.98 3031.53,-73.36 3031.44,-80.36"/>
</g>
<!-- _Core2d__Core2dTonemapping&#45;&gt;_Core2d__Core2dFxaa -->
<g id="edge14" class="edge">
<title>_Core2d__Core2dTonemapping:e&#45;&gt;_Core2d__Core2dFxaa:w</title>
<path fill="none" stroke="white" d="M2337.62,-107C2406.59,-107 2424.18,-80.19 2487.53,-77.26"/>
<polygon fill="white" stroke="white" points="2487.57,-80.76 2497.49,-77.03 2487.41,-73.76 2487.57,-80.76"/>
</g>
<!-- _Core2d__Core2dTonemapping&#45;&gt;_Core2d__Core2dSmaa -->
<g id="edge16" class="edge">
<title>_Core2d__Core2dTonemapping:e&#45;&gt;_Core2d__Core2dSmaa:w</title>
<path fill="none" stroke="white" d="M2337.62,-107C2408,-107 2421.51,-151.87 2485.88,-156.6"/>
<polygon fill="white" stroke="white" points="2485.49,-160.09 2495.61,-156.95 2485.74,-153.09 2485.49,-160.09"/>
</g>
<!-- _Core3d_SubGraphUi__Core3d_SubGraphUiUiPass -->
<g id="node16" class="node">
<title>_Core3d_SubGraphUi__Core3d_SubGraphUiUiPass</title>
<text text-anchor="start" x="117.5" y="-255.7" font-family="Helvetica,sans-Serif" font-size="14.00" fill="white">UiPass</text>
<text text-anchor="start" x="111.12" y="-245.5" font-family="Helvetica,sans-Serif" font-size="10.00" fill="red">UiPassNode</text>
<path fill="none" stroke="white" d="M117.46,-239C117.46,-239 160.29,-239 160.29,-239 165.96,-239 171.62,-244.67 171.62,-250.33 171.62,-250.33 171.62,-261.67 171.62,-261.67 171.62,-267.33 165.96,-273 160.29,-273 160.29,-273 117.46,-273 117.46,-273 111.79,-273 106.12,-267.33 106.12,-261.67 106.12,-261.67 106.12,-250.33 106.12,-250.33 106.12,-244.67 111.79,-239 117.46,-239"/>
</g>
<!-- _Core3d__Core3dContrastAdaptiveSharpening -->
<g id="node17" class="node">
<title>_Core3d__Core3dContrastAdaptiveSharpening</title>
<text text-anchor="start" x="4880.25" y="-327.7" font-family="Helvetica,sans-Serif" font-size="14.00" fill="white">ContrastAdaptiveSharpening</text>
<text text-anchor="start" x="4945.88" y="-317.5" font-family="Helvetica,sans-Serif" font-size="10.00" fill="red">CasNode</text>
<path fill="none" stroke="white" d="M4886.58,-311C4886.58,-311 5046.42,-311 5046.42,-311 5052.08,-311 5057.75,-316.67 5057.75,-322.33 5057.75,-322.33 5057.75,-333.67 5057.75,-333.67 5057.75,-339.33 5052.08,-345 5046.42,-345 5046.42,-345 4886.58,-345 4886.58,-345 4880.92,-345 4875.25,-339.33 4875.25,-333.67 4875.25,-333.67 4875.25,-322.33 4875.25,-322.33 4875.25,-316.67 4880.92,-311 4886.58,-311"/>
</g>
<!-- _Core3d__Core3dEndMainPassPostProcessing -->
<g id="node20" class="node">
<title>_Core3d__Core3dEndMainPassPostProcessing</title>
<text text-anchor="start" x="5150.75" y="-287.7" font-family="Helvetica,sans-Serif" font-size="14.00" fill="white">EndMainPassPostProcessing</text>
<text text-anchor="start" x="5213.75" y="-277.5" font-family="Helvetica,sans-Serif" font-size="10.00" fill="red">EmptyNode</text>
<path fill="none" stroke="white" d="M5157.08,-271C5157.08,-271 5322.17,-271 5322.17,-271 5327.83,-271 5333.5,-276.67 5333.5,-282.33 5333.5,-282.33 5333.5,-293.67 5333.5,-293.67 5333.5,-299.33 5327.83,-305 5322.17,-305 5322.17,-305 5157.08,-305 5157.08,-305 5151.42,-305 5145.75,-299.33 5145.75,-293.67 5145.75,-293.67 5145.75,-282.33 5145.75,-282.33 5145.75,-276.67 5151.42,-271 5157.08,-271"/>
</g>
<!-- _Core3d__Core3dContrastAdaptiveSharpening&#45;&gt;_Core3d__Core3dEndMainPassPostProcessing -->
<g id="edge28" class="edge">
<title>_Core3d__Core3dContrastAdaptiveSharpening:e&#45;&gt;_Core3d__Core3dEndMainPassPostProcessing:w</title>
<path fill="none" stroke="white" d="M5055.75,-328C5096.33,-328 5102.32,-294.86 5136.68,-288.91"/>
<polygon fill="white" stroke="white" points="5136.56,-292.43 5146.24,-288.12 5135.99,-285.46 5136.56,-292.43"/>
</g>
<!-- _Core3d__Core3dShadowPass -->
<g id="node18" class="node">
<title>_Core3d__Core3dShadowPass</title>
<text text-anchor="start" x="1044.88" y="-247.7" font-family="Helvetica,sans-Serif" font-size="14.00" fill="white">ShadowPass</text>
<text text-anchor="start" x="1043.75" y="-237.5" font-family="Helvetica,sans-Serif" font-size="10.00" fill="red">ShadowPassNode</text>
<path fill="none" stroke="white" d="M1050.08,-231C1050.08,-231 1118.42,-231 1118.42,-231 1124.08,-231 1129.75,-236.67 1129.75,-242.33 1129.75,-242.33 1129.75,-253.67 1129.75,-253.67 1129.75,-259.33 1124.08,-265 1118.42,-265 1118.42,-265 1050.08,-265 1050.08,-265 1044.42,-265 1038.75,-259.33 1038.75,-253.67 1038.75,-253.67 1038.75,-242.33 1038.75,-242.33 1038.75,-236.67 1044.42,-231 1050.08,-231"/>
</g>
<!-- _Core3d__Core3dStartMainPass -->
<g id="node22" class="node">
<title>_Core3d__Core3dStartMainPass</title>
<text text-anchor="start" x="1291" y="-307.7" font-family="Helvetica,sans-Serif" font-size="14.00" fill="white">StartMainPass</text>
<text text-anchor="start" x="1309.38" y="-297.5" font-family="Helvetica,sans-Serif" font-size="10.00" fill="red">EmptyNode</text>
<path fill="none" stroke="white" d="M1297.33,-291C1297.33,-291 1373.17,-291 1373.17,-291 1378.83,-291 1384.5,-296.67 1384.5,-302.33 1384.5,-302.33 1384.5,-313.67 1384.5,-313.67 1384.5,-319.33 1378.83,-325 1373.17,-325 1373.17,-325 1297.33,-325 1297.33,-325 1291.67,-325 1286,-319.33 1286,-313.67 1286,-313.67 1286,-302.33 1286,-302.33 1286,-296.67 1291.67,-291 1297.33,-291"/>
</g>
<!-- _Core3d__Core3dShadowPass&#45;&gt;_Core3d__Core3dStartMainPass -->
<g id="edge33" class="edge">
<title>_Core3d__Core3dShadowPass:e&#45;&gt;_Core3d__Core3dStartMainPass:w</title>
<path fill="none" stroke="white" d="M1127.75,-248C1199.79,-248 1210.9,-301.84 1276.52,-307.52"/>
<polygon fill="white" stroke="white" points="1276.35,-311.01 1286.49,-307.94 1276.64,-304.02 1276.35,-311.01"/>
</g>
<!-- _Core3d__Core3dEndMainPass -->
<g id="node19" class="node">
<title>_Core3d__Core3dEndMainPass</title>
<text text-anchor="start" x="3092.88" y="-281.7" font-family="Helvetica,sans-Serif" font-size="14.00" fill="white">EndMainPass</text>
<text text-anchor="start" x="3109" y="-271.5" font-family="Helvetica,sans-Serif" font-size="10.00" fill="red">EmptyNode</text>
<path fill="none" stroke="white" d="M3099.21,-265C3099.21,-265 3170.54,-265 3170.54,-265 3176.21,-265 3181.88,-270.67 3181.88,-276.33 3181.88,-276.33 3181.88,-287.67 3181.88,-287.67 3181.88,-293.33 3176.21,-299 3170.54,-299 3170.54,-299 3099.21,-299 3099.21,-299 3093.54,-299 3087.88,-293.33 3087.88,-287.67 3087.88,-287.67 3087.88,-276.33 3087.88,-276.33 3087.88,-270.67 3093.54,-265 3099.21,-265"/>
</g>
<!-- _Core3d__Core3dUiPass -->
<g id="node23" class="node">
<title>_Core3d__Core3dUiPass</title>
<text text-anchor="start" x="5456.12" y="-247.7" font-family="Helvetica,sans-Serif" font-size="14.00" fill="white">UiPass</text>
<text text-anchor="start" x="5426.5" y="-237.5" font-family="Helvetica,sans-Serif" font-size="10.00" fill="red">RunGraphOnViewNode</text>
<path fill="none" stroke="white" d="M5432.83,-231C5432.83,-231 5522.17,-231 5522.17,-231 5527.83,-231 5533.5,-236.67 5533.5,-242.33 5533.5,-242.33 5533.5,-253.67 5533.5,-253.67 5533.5,-259.33 5527.83,-265 5522.17,-265 5522.17,-265 5432.83,-265 5432.83,-265 5427.17,-265 5421.5,-259.33 5421.5,-253.67 5421.5,-253.67 5421.5,-242.33 5421.5,-242.33 5421.5,-236.67 5427.17,-231 5432.83,-231"/>
</g>
<!-- _Core3d__Core3dEndMainPass&#45;&gt;_Core3d__Core3dUiPass -->
<g id="edge34" class="edge">
<title>_Core3d__Core3dEndMainPass:e&#45;&gt;_Core3d__Core3dUiPass:w</title>
<path fill="none" stroke="white" d="M3179.88,-282C3285.73,-282 3548.77,-243 3654.62,-243 3654.62,-243 3654.62,-243 4967.5,-243 5166.32,-243 5218.84,-247.81 5412.08,-247.99"/>
<polygon fill="white" stroke="white" points="5411.98,-251.49 5421.99,-248 5411.99,-244.49 5411.98,-251.49"/>
</g>
<!-- _Core3d__Core3dBloom -->
<g id="node24" class="node">
<title>_Core3d__Core3dBloom</title>
<text text-anchor="start" x="3636.12" y="-305.7" font-family="Helvetica,sans-Serif" font-size="14.00" fill="white">Bloom</text>
<text text-anchor="start" x="3585.88" y="-295.5" font-family="Helvetica,sans-Serif" font-size="10.00" fill="red">ViewNodeRunner&lt;BloomNode&gt;</text>
<path fill="none" stroke="white" d="M3592.21,-289C3592.21,-289 3719.04,-289 3719.04,-289 3724.71,-289 3730.38,-294.67 3730.38,-300.33 3730.38,-300.33 3730.38,-311.67 3730.38,-311.67 3730.38,-317.33 3724.71,-323 3719.04,-323 3719.04,-323 3592.21,-323 3592.21,-323 3586.54,-323 3580.88,-317.33 3580.88,-311.67 3580.88,-311.67 3580.88,-300.33 3580.88,-300.33 3580.88,-294.67 3586.54,-289 3592.21,-289"/>
</g>
<!-- _Core3d__Core3dEndMainPass&#45;&gt;_Core3d__Core3dBloom -->
<g id="edge36" class="edge">
<title>_Core3d__Core3dEndMainPass:e&#45;&gt;_Core3d__Core3dBloom:w</title>
<path fill="none" stroke="white" d="M3179.88,-282C3319.05,-282 3354.76,-269.91 3493,-286 3529.68,-290.27 3540.02,-303.12 3571.76,-305.59"/>
<polygon fill="white" stroke="white" points="3571.24,-309.07 3581.36,-305.94 3571.5,-302.08 3571.24,-309.07"/>
</g>
<!-- _Core3d__Core3dMotionBlur -->
<g id="node32" class="node">
<title>_Core3d__Core3dMotionBlur</title>
<text text-anchor="start" x="3368.25" y="-315.7" font-family="Helvetica,sans-Serif" font-size="14.00" fill="white">MotionBlur</text>
<text text-anchor="start" x="3321.75" y="-305.5" font-family="Helvetica,sans-Serif" font-size="10.00" fill="red">ViewNodeRunner&lt;MotionBlurNode&gt;</text>
<path fill="none" stroke="white" d="M3328.08,-299C3328.08,-299 3473.67,-299 3473.67,-299 3479.33,-299 3485,-304.67 3485,-310.33 3485,-310.33 3485,-321.67 3485,-321.67 3485,-327.33 3479.33,-333 3473.67,-333 3473.67,-333 3328.08,-333 3328.08,-333 3322.42,-333 3316.75,-327.33 3316.75,-321.67 3316.75,-321.67 3316.75,-310.33 3316.75,-310.33 3316.75,-304.67 3322.42,-299 3328.08,-299"/>
</g>
<!-- _Core3d__Core3dEndMainPass&#45;&gt;_Core3d__Core3dMotionBlur -->
<g id="edge46" class="edge">
<title>_Core3d__Core3dEndMainPass:e&#45;&gt;_Core3d__Core3dMotionBlur:w</title>
<path fill="none" stroke="white" d="M3179.88,-282C3239.45,-282 3253.53,-311.88 3307.42,-315.62"/>
<polygon fill="white" stroke="white" points="3307.13,-319.11 3317.24,-315.95 3307.36,-312.11 3307.13,-319.11"/>
</g>
<!-- _Core3d__Core3dTonemapping -->
<g id="node38" class="node">
<title>_Core3d__Core3dTonemapping</title>
<text text-anchor="start" x="4421.38" y="-322.7" font-family="Helvetica,sans-Serif" font-size="14.00" fill="white">Tonemapping</text>
<text text-anchor="start" x="4377.5" y="-312.5" font-family="Helvetica,sans-Serif" font-size="10.00" fill="red">ViewNodeRunner&lt;TonemappingNode&gt;</text>
<path fill="none" stroke="white" d="M4383.83,-306C4383.83,-306 4540.67,-306 4540.67,-306 4546.33,-306 4552,-311.67 4552,-317.33 4552,-317.33 4552,-328.67 4552,-328.67 4552,-334.33 4546.33,-340 4540.67,-340 4540.67,-340 4383.83,-340 4383.83,-340 4378.17,-340 4372.5,-334.33 4372.5,-328.67 4372.5,-328.67 4372.5,-317.33 4372.5,-317.33 4372.5,-311.67 4378.17,-306 4383.83,-306"/>
</g>
<!-- _Core3d__Core3dEndMainPass&#45;&gt;_Core3d__Core3dTonemapping -->
<g id="edge50" class="edge">
<title>_Core3d__Core3dEndMainPass:e&#45;&gt;_Core3d__Core3dTonemapping:w</title>
<path fill="none" stroke="white" d="M3179.88,-282C3243.83,-282 3246.87,-329.87 3308.75,-346 3457.68,-384.83 3500.72,-363 3654.62,-363 3654.62,-363 3654.62,-363 3917,-363 4084.08,-363 4127.42,-370.8 4292.5,-345 4325.7,-339.81 4334.88,-326.41 4363.14,-323.55"/>
<polygon fill="white" stroke="white" points="4363.17,-327.05 4372.99,-323.07 4362.83,-320.06 4363.17,-327.05"/>
</g>
<!-- _Core3d__Core3dEndMainPassPostProcessing&#45;&gt;_Core3d__Core3dUiPass -->
<g id="edge35" class="edge">
<title>_Core3d__Core3dEndMainPassPostProcessing:e&#45;&gt;_Core3d__Core3dUiPass:w</title>
<path fill="none" stroke="white" d="M5331.5,-288C5372.08,-288 5378.07,-254.86 5412.43,-248.91"/>
<polygon fill="white" stroke="white" points="5412.31,-252.43 5421.99,-248.12 5411.74,-245.46 5412.31,-252.43"/>
</g>
<!-- _Core3d__Core3dUpscaling -->
<g id="node39" class="node">
<title>_Core3d__Core3dUpscaling</title>
<text text-anchor="start" x="5674.5" y="-267.7" font-family="Helvetica,sans-Serif" font-size="14.00" fill="white">Upscaling</text>
<text text-anchor="start" x="5626.5" y="-257.5" font-family="Helvetica,sans-Serif" font-size="10.00" fill="red">ViewNodeRunner&lt;UpscalingNode&gt;</text>
<path fill="none" stroke="white" d="M5632.83,-251C5632.83,-251 5775.42,-251 5775.42,-251 5781.08,-251 5786.75,-256.67 5786.75,-262.33 5786.75,-262.33 5786.75,-273.67 5786.75,-273.67 5786.75,-279.33 5781.08,-285 5775.42,-285 5775.42,-285 5632.83,-285 5632.83,-285 5627.17,-285 5621.5,-279.33 5621.5,-273.67 5621.5,-273.67 5621.5,-262.33 5621.5,-262.33 5621.5,-256.67 5627.17,-251 5632.83,-251"/>
</g>
<!-- _Core3d__Core3dEndMainPassPostProcessing&#45;&gt;_Core3d__Core3dUpscaling -->
<g id="edge54" class="edge">
<title>_Core3d__Core3dEndMainPassPostProcessing:e&#45;&gt;_Core3d__Core3dUpscaling:w</title>
<path fill="none" stroke="white" d="M5331.5,-288C5424.94,-288 5448.39,-285.88 5541.5,-278 5573.94,-275.25 5584.46,-269.52 5612.02,-268.25"/>
<polygon fill="white" stroke="white" points="5612.07,-271.75 5621.99,-268.03 5611.91,-264.75 5612.07,-271.75"/>
</g>
<!-- _Core3d__Core3dEndPrepasses -->
<g id="node21" class="node">
<title>_Core3d__Core3dEndPrepasses</title>
<text text-anchor="start" x="1040.38" y="-367.7" font-family="Helvetica,sans-Serif" font-size="14.00" fill="white">EndPrepasses</text>
<text text-anchor="start" x="1058.38" y="-357.5" font-family="Helvetica,sans-Serif" font-size="10.00" fill="red">EmptyNode</text>
<path fill="none" stroke="white" d="M1046.71,-351C1046.71,-351 1121.79,-351 1121.79,-351 1127.46,-351 1133.12,-356.67 1133.12,-362.33 1133.12,-362.33 1133.12,-373.67 1133.12,-373.67 1133.12,-379.33 1127.46,-385 1121.79,-385 1121.79,-385 1046.71,-385 1046.71,-385 1041.04,-385 1035.38,-379.33 1035.38,-373.67 1035.38,-373.67 1035.38,-362.33 1035.38,-362.33 1035.38,-356.67 1041.04,-351 1046.71,-351"/>
</g>
<!-- _Core3d__Core3dEndPrepasses&#45;&gt;_Core3d__Core3dStartMainPass -->
<g id="edge31" class="edge">
<title>_Core3d__Core3dEndPrepasses:e&#45;&gt;_Core3d__Core3dStartMainPass:w</title>
<path fill="none" stroke="white" d="M1131.12,-368C1201.84,-368 1212.37,-314.16 1276.73,-308.48"/>
<polygon fill="white" stroke="white" points="1276.65,-311.99 1286.49,-308.06 1276.35,-305 1276.65,-311.99"/>
</g>
<!-- _Core3d__Core3dMainOpaquePass -->
<g id="node25" class="node">
<title>_Core3d__Core3dMainOpaquePass</title>
<text text-anchor="start" x="1885.62" y="-282.7" font-family="Helvetica,sans-Serif" font-size="14.00" fill="white">MainOpaquePass</text>
<text text-anchor="start" x="1840.25" y="-272.5" font-family="Helvetica,sans-Serif" font-size="10.00" fill="red">ViewNodeRunner&lt;MainOpaquePass3dNode&gt;</text>
<path fill="none" stroke="white" d="M1846.58,-266C1846.58,-266 2033.42,-266 2033.42,-266 2039.08,-266 2044.75,-271.67 2044.75,-277.33 2044.75,-277.33 2044.75,-288.67 2044.75,-288.67 2044.75,-294.33 2039.08,-300 2033.42,-300 2033.42,-300 1846.58,-300 1846.58,-300 1840.92,-300 1835.25,-294.33 1835.25,-288.67 1835.25,-288.67 1835.25,-277.33 1835.25,-277.33 1835.25,-271.67 1840.92,-266 1846.58,-266"/>
</g>
<!-- _Core3d__Core3dStartMainPass&#45;&gt;_Core3d__Core3dMainOpaquePass -->
<g id="edge38" class="edge">
<title>_Core3d__Core3dStartMainPass:e&#45;&gt;_Core3d__Core3dMainOpaquePass:w</title>
<path fill="none" stroke="white" d="M1382.5,-308C1420.01,-308 1427.29,-292.73 1464.5,-288 1625.01,-267.62 1669.5,-282.28 1825.8,-282.97"/>
<polygon fill="white" stroke="white" points="1825.73,-286.47 1835.74,-283 1825.74,-279.47 1825.73,-286.47"/>
</g>
<!-- _Core3d__Core3dDeferredLightingPass -->
<g id="node40" class="node">
<title>_Core3d__Core3dDeferredLightingPass</title>
<text text-anchor="start" x="1545" y="-317.7" font-family="Helvetica,sans-Serif" font-size="14.00" fill="white">DeferredLightingPass</text>
<text text-anchor="start" x="1477.5" y="-307.5" font-family="Helvetica,sans-Serif" font-size="10.00" fill="red">ViewNodeRunner&lt;DeferredOpaquePass3dPbrLightingNode&gt;</text>
<path fill="none" stroke="white" d="M1483.83,-301C1483.83,-301 1735.92,-301 1735.92,-301 1741.58,-301 1747.25,-306.67 1747.25,-312.33 1747.25,-312.33 1747.25,-323.67 1747.25,-323.67 1747.25,-329.33 1741.58,-335 1735.92,-335 1735.92,-335 1483.83,-335 1483.83,-335 1478.17,-335 1472.5,-329.33 1472.5,-323.67 1472.5,-323.67 1472.5,-312.33 1472.5,-312.33 1472.5,-306.67 1478.17,-301 1483.83,-301"/>
</g>
<!-- _Core3d__Core3dStartMainPass&#45;&gt;_Core3d__Core3dDeferredLightingPass -->
<g id="edge56" class="edge">
<title>_Core3d__Core3dStartMainPass:e&#45;&gt;_Core3d__Core3dDeferredLightingPass:w</title>
<path fill="none" stroke="white" d="M1382.5,-308C1419.61,-308 1431.17,-316.14 1463.29,-317.73"/>
<polygon fill="white" stroke="white" points="1462.91,-321.22 1472.99,-317.96 1463.07,-314.23 1462.91,-321.22"/>
</g>
<!-- _Core3d__Core3dUiPass&#45;&gt;_Core3d__Core3dUpscaling -->
<g id="edge55" class="edge">
<title>_Core3d__Core3dUiPass:e&#45;&gt;_Core3d__Core3dUpscaling:w</title>
<path fill="none" stroke="white" d="M5531.5,-248C5569.26,-248 5579.71,-264.28 5612.14,-267.47"/>
<polygon fill="white" stroke="white" points="5611.83,-270.95 5621.99,-267.93 5612.16,-263.96 5611.83,-270.95"/>
</g>
<!-- _Core3d__Core3dDepthOfField -->
<g id="node30" class="node">
<title>_Core3d__Core3dDepthOfField</title>
<text text-anchor="start" x="3875.88" y="-302.7" font-family="Helvetica,sans-Serif" font-size="14.00" fill="white">DepthOfField</text>
<text text-anchor="start" x="3831.25" y="-292.5" font-family="Helvetica,sans-Serif" font-size="10.00" fill="red">ViewNodeRunner&lt;DepthOfFieldNode&gt;</text>
<path fill="none" stroke="white" d="M3837.58,-286C3837.58,-286 3994.42,-286 3994.42,-286 4000.08,-286 4005.75,-291.67 4005.75,-297.33 4005.75,-297.33 4005.75,-308.67 4005.75,-308.67 4005.75,-314.33 4000.08,-320 3994.42,-320 3994.42,-320 3837.58,-320 3837.58,-320 3831.92,-320 3826.25,-314.33 3826.25,-308.67 3826.25,-308.67 3826.25,-297.33 3826.25,-297.33 3826.25,-291.67 3831.92,-286 3837.58,-286"/>
</g>
<!-- _Core3d__Core3dBloom&#45;&gt;_Core3d__Core3dDepthOfField -->
<g id="edge44" class="edge">
<title>_Core3d__Core3dBloom:e&#45;&gt;_Core3d__Core3dDepthOfField:w</title>
<path fill="none" stroke="white" d="M3728.38,-306C3768.79,-306 3781.59,-303.51 3817.04,-303.07"/>
<polygon fill="white" stroke="white" points="3816.76,-306.57 3826.74,-303.01 3816.72,-299.57 3816.76,-306.57"/>
</g>
<!-- _Core3d__Core3dBloom&#45;&gt;_Core3d__Core3dTonemapping -->
<g id="edge51" class="edge">
<title>_Core3d__Core3dBloom:e&#45;&gt;_Core3d__Core3dTonemapping:w</title>
<path fill="none" stroke="white" d="M3728.38,-306C3770.08,-306 3776.99,-326.94 3818.25,-333 4026.79,-363.65 4082.11,-345.78 4292.5,-333 4325,-331.03 4335.47,-324.69 4363.02,-323.28"/>
<polygon fill="white" stroke="white" points="4363.08,-326.78 4372.99,-323.04 4362.9,-319.78 4363.08,-326.78"/>
</g>
<!-- _Core3d__Core3dMainTransmissivePass -->
<g id="node26" class="node">
<title>_Core3d__Core3dMainTransmissivePass</title>
<text text-anchor="start" x="2179.75" y="-282.7" font-family="Helvetica,sans-Serif" font-size="14.00" fill="white">MainTransmissivePass</text>
<text text-anchor="start" x="2137.75" y="-272.5" font-family="Helvetica,sans-Serif" font-size="10.00" fill="red">ViewNodeRunner&lt;MainTransmissivePass3dNode&gt;</text>
<path fill="none" stroke="white" d="M2144.08,-266C2144.08,-266 2355.67,-266 2355.67,-266 2361.33,-266 2367,-271.67 2367,-277.33 2367,-277.33 2367,-288.67 2367,-288.67 2367,-294.33 2361.33,-300 2355.67,-300 2355.67,-300 2144.08,-300 2144.08,-300 2138.42,-300 2132.75,-294.33 2132.75,-288.67 2132.75,-288.67 2132.75,-277.33 2132.75,-277.33 2132.75,-271.67 2138.42,-266 2144.08,-266"/>
</g>
<!-- _Core3d__Core3dMainOpaquePass&#45;&gt;_Core3d__Core3dMainTransmissivePass -->
<g id="edge40" class="edge">
<title>_Core3d__Core3dMainOpaquePass:e&#45;&gt;_Core3d__Core3dMainTransmissivePass:w</title>
<path fill="none" stroke="white" d="M2042.75,-283C2079.65,-283 2091.57,-283 2123.59,-283"/>
<polygon fill="white" stroke="white" points="2123.24,-286.5 2133.24,-283 2123.24,-279.5 2123.24,-286.5"/>
</g>
<!-- _Core3d__Core3dMainTransparentPass -->
<g id="node27" class="node">
<title>_Core3d__Core3dMainTransparentPass</title>
<text text-anchor="start" x="2502.38" y="-282.7" font-family="Helvetica,sans-Serif" font-size="14.00" fill="white">MainTransparentPass</text>
<text text-anchor="start" x="2460" y="-272.5" font-family="Helvetica,sans-Serif" font-size="10.00" fill="red">ViewNodeRunner&lt;MainTransparentPass3dNode&gt;</text>
<path fill="none" stroke="white" d="M2466.33,-266C2466.33,-266 2671.17,-266 2671.17,-266 2676.83,-266 2682.5,-271.67 2682.5,-277.33 2682.5,-277.33 2682.5,-288.67 2682.5,-288.67 2682.5,-294.33 2676.83,-300 2671.17,-300 2671.17,-300 2466.33,-300 2466.33,-300 2460.67,-300 2455,-294.33 2455,-288.67 2455,-288.67 2455,-277.33 2455,-277.33 2455,-271.67 2460.67,-266 2466.33,-266"/>
</g>
<!-- _Core3d__Core3dMainTransmissivePass&#45;&gt;_Core3d__Core3dMainTransparentPass -->
<g id="edge41" class="edge">
<title>_Core3d__Core3dMainTransmissivePass:e&#45;&gt;_Core3d__Core3dMainTransparentPass:w</title>
<path fill="none" stroke="white" d="M2365,-283C2401.9,-283 2413.82,-283 2445.84,-283"/>
<polygon fill="white" stroke="white" points="2445.49,-286.5 2455.49,-283 2445.49,-279.5 2445.49,-286.5"/>
</g>
<!-- _Core3d__Core3dMainTransparentPass&#45;&gt;_Core3d__Core3dEndMainPass -->
<g id="edge24" class="edge">
<title>_Core3d__Core3dMainTransparentPass:e&#45;&gt;_Core3d__Core3dEndMainPass:w</title>
<path fill="none" stroke="white" d="M2680.5,-283C2719.01,-283 2724.51,-261.31 2762.5,-255 2849.53,-240.55 2873.25,-245.91 2961,-255 3015.23,-260.62 3029.48,-279.2 3078.49,-281.72"/>
<polygon fill="white" stroke="white" points="3078.28,-285.21 3088.36,-281.96 3078.45,-278.22 3078.28,-285.21"/>
</g>
<!-- _Core3d__Core3dOitResolvePass -->
<g id="node34" class="node">
<title>_Core3d__Core3dOitResolvePass</title>
<text text-anchor="start" x="2813.38" y="-284.7" font-family="Helvetica,sans-Serif" font-size="14.00" fill="white">OitResolvePass</text>
<text text-anchor="start" x="2781.5" y="-274.5" font-family="Helvetica,sans-Serif" font-size="10.00" fill="red">ViewNodeRunner&lt;OitResolveNode&gt;</text>
<path fill="none" stroke="white" d="M2787.83,-268C2787.83,-268 2935.67,-268 2935.67,-268 2941.33,-268 2947,-273.67 2947,-279.33 2947,-279.33 2947,-290.67 2947,-290.67 2947,-296.33 2941.33,-302 2935.67,-302 2935.67,-302 2787.83,-302 2787.83,-302 2782.17,-302 2776.5,-296.33 2776.5,-290.67 2776.5,-290.67 2776.5,-279.33 2776.5,-279.33 2776.5,-273.67 2782.17,-268 2787.83,-268"/>
</g>
<!-- _Core3d__Core3dMainTransparentPass&#45;&gt;_Core3d__Core3dOitResolvePass -->
<g id="edge47" class="edge">
<title>_Core3d__Core3dMainTransparentPass:e&#45;&gt;_Core3d__Core3dOitResolvePass:w</title>
<path fill="none" stroke="white" d="M2680.5,-283C2719.98,-283 2732.61,-284.64 2767.06,-284.95"/>
<polygon fill="white" stroke="white" points="2766.97,-288.45 2776.99,-284.99 2767,-281.45 2766.97,-288.45"/>
</g>
<!-- _Core3d__Core3dCopyDeferredLightingId -->
<g id="node28" class="node">
<title>_Core3d__Core3dCopyDeferredLightingId</title>
<text text-anchor="start" x="699" y="-359.7" font-family="Helvetica,sans-Serif" font-size="14.00" fill="white">CopyDeferredLightingId</text>
<text text-anchor="start" x="663" y="-349.5" font-family="Helvetica,sans-Serif" font-size="10.00" fill="red">ViewNodeRunner&lt;CopyDeferredLightingIdNode&gt;</text>
<path fill="none" stroke="white" d="M669.33,-343C669.33,-343 871.17,-343 871.17,-343 876.83,-343 882.5,-348.67 882.5,-354.33 882.5,-354.33 882.5,-365.67 882.5,-365.67 882.5,-371.33 876.83,-377 871.17,-377 871.17,-377 669.33,-377 669.33,-377 663.67,-377 658,-371.33 658,-365.67 658,-365.67 658,-354.33 658,-354.33 658,-348.67 663.67,-343 669.33,-343"/>
</g>
<!-- _Core3d__Core3dCopyDeferredLightingId&#45;&gt;_Core3d__Core3dEndPrepasses -->
<g id="edge30" class="edge">
<title>_Core3d__Core3dCopyDeferredLightingId:e&#45;&gt;_Core3d__Core3dEndPrepasses:w</title>
<path fill="none" stroke="white" d="M880.5,-360C946.36,-360 965.44,-367.12 1026,-367.93"/>
<polygon fill="white" stroke="white" points="1025.84,-371.42 1035.86,-367.99 1025.88,-364.42 1025.84,-371.42"/>
</g>
<!-- _Core3d__Core3dDeferredPrepass -->
<g id="node29" class="node">
<title>_Core3d__Core3dDeferredPrepass</title>
<text text-anchor="start" x="404.88" y="-345.7" font-family="Helvetica,sans-Serif" font-size="14.00" fill="white">DeferredPrepass</text>
<text text-anchor="start" x="346.75" y="-335.5" font-family="Helvetica,sans-Serif" font-size="10.00" fill="red">ViewNodeRunner&lt;DeferredGBufferPrepassNode&gt;</text>
<path fill="none" stroke="white" d="M353.08,-329C353.08,-329 558.67,-329 558.67,-329 564.33,-329 570,-334.67 570,-340.33 570,-340.33 570,-351.67 570,-351.67 570,-357.33 564.33,-363 558.67,-363 558.67,-363 353.08,-363 353.08,-363 347.42,-363 341.75,-357.33 341.75,-351.67 341.75,-351.67 341.75,-340.33 341.75,-340.33 341.75,-334.67 347.42,-329 353.08,-329"/>
</g>
<!-- _Core3d__Core3dDeferredPrepass&#45;&gt;_Core3d__Core3dCopyDeferredLightingId -->
<g id="edge42" class="edge">
<title>_Core3d__Core3dDeferredPrepass:e&#45;&gt;_Core3d__Core3dCopyDeferredLightingId:w</title>
<path fill="none" stroke="white" d="M568,-346C605.32,-346 616.52,-357.4 648.74,-359.63"/>
<polygon fill="white" stroke="white" points="648.38,-363.12 658.49,-359.95 648.61,-356.12 648.38,-363.12"/>
</g>
<!-- _Core3d__Core3dPostProcessing -->
<g id="node35" class="node">
<title>_Core3d__Core3dPostProcessing</title>
<text text-anchor="start" x="4142.25" y="-302.7" font-family="Helvetica,sans-Serif" font-size="14.00" fill="white">PostProcessing</text>
<text text-anchor="start" x="4098.75" y="-292.5" font-family="Helvetica,sans-Serif" font-size="10.00" fill="red">ViewNodeRunner&lt;PostProcessingNode&gt;</text>
<path fill="none" stroke="white" d="M4105.08,-286C4105.08,-286 4273.17,-286 4273.17,-286 4278.83,-286 4284.5,-291.67 4284.5,-297.33 4284.5,-297.33 4284.5,-308.67 4284.5,-308.67 4284.5,-314.33 4278.83,-320 4273.17,-320 4273.17,-320 4105.08,-320 4105.08,-320 4099.42,-320 4093.75,-314.33 4093.75,-308.67 4093.75,-308.67 4093.75,-297.33 4093.75,-297.33 4093.75,-291.67 4099.42,-286 4105.08,-286"/>
</g>
<!-- _Core3d__Core3dDepthOfField&#45;&gt;_Core3d__Core3dPostProcessing -->
<g id="edge48" class="edge">
<title>_Core3d__Core3dDepthOfField:e&#45;&gt;_Core3d__Core3dPostProcessing:w</title>
<path fill="none" stroke="white" d="M4003.75,-303C4040.65,-303 4052.57,-303 4084.59,-303"/>
<polygon fill="white" stroke="white" points="4084.24,-306.5 4094.24,-303 4084.24,-299.5 4084.24,-306.5"/>
</g>
<!-- _Core3d__Core3dDepthOfField&#45;&gt;_Core3d__Core3dTonemapping -->
<g id="edge52" class="edge">
<title>_Core3d__Core3dDepthOfField:e&#45;&gt;_Core3d__Core3dTonemapping:w</title>
<path fill="none" stroke="white" d="M4003.75,-303C4042.56,-303 4047.54,-279.77 4085.75,-273 4176.23,-256.97 4204.03,-248.16 4292.5,-273 4329.58,-283.41 4331.75,-315.75 4363.19,-321.96"/>
<polygon fill="white" stroke="white" points="4362.71,-325.43 4372.99,-322.86 4363.35,-318.46 4362.71,-325.43"/>
</g>
<!-- _Core3d__Core3dFxaa -->
<g id="node31" class="node">
<title>_Core3d__Core3dFxaa</title>
<text text-anchor="start" x="4698.62" y="-302.7" font-family="Helvetica,sans-Serif" font-size="14.00" fill="white">Fxaa</text>
<text text-anchor="start" x="4646.88" y="-292.5" font-family="Helvetica,sans-Serif" font-size="10.00" fill="red">ViewNodeRunner&lt;FxaaNode&gt;</text>
<path fill="none" stroke="white" d="M4653.21,-286C4653.21,-286 4774.04,-286 4774.04,-286 4779.71,-286 4785.38,-291.67 4785.38,-297.33 4785.38,-297.33 4785.38,-308.67 4785.38,-308.67 4785.38,-314.33 4779.71,-320 4774.04,-320 4774.04,-320 4653.21,-320 4653.21,-320 4647.54,-320 4641.88,-314.33 4641.88,-308.67 4641.88,-308.67 4641.88,-297.33 4641.88,-297.33 4641.88,-291.67 4647.54,-286 4653.21,-286"/>
</g>
<!-- _Core3d__Core3dFxaa&#45;&gt;_Core3d__Core3dContrastAdaptiveSharpening -->
<g id="edge23" class="edge">
<title>_Core3d__Core3dFxaa:e&#45;&gt;_Core3d__Core3dContrastAdaptiveSharpening:w</title>
<path fill="none" stroke="white" d="M4783.38,-303C4822.5,-303 4832.35,-323.53 4865.99,-327.38"/>
<polygon fill="white" stroke="white" points="4865.56,-330.86 4875.74,-327.92 4865.95,-323.87 4865.56,-330.86"/>
</g>
<!-- _Core3d__Core3dFxaa&#45;&gt;_Core3d__Core3dEndMainPassPostProcessing -->
<g id="edge27" class="edge">
<title>_Core3d__Core3dFxaa:e&#45;&gt;_Core3d__Core3dEndMainPassPostProcessing:w</title>
<path fill="none" stroke="white" d="M4783.38,-303C4820.72,-303 4829.95,-299.78 4867.25,-298 4987.96,-292.25 5020.97,-288.26 5136.32,-288.01"/>
<polygon fill="white" stroke="white" points="5136.24,-291.51 5146.24,-288 5136.23,-284.51 5136.24,-291.51"/>
</g>
<!-- _Core3d__Core3dMotionBlur&#45;&gt;_Core3d__Core3dBloom -->
<g id="edge37" class="edge">
<title>_Core3d__Core3dMotionBlur:e&#45;&gt;_Core3d__Core3dBloom:w</title>
<path fill="none" stroke="white" d="M3483,-316C3523.6,-316 3536.08,-307.72 3571.62,-306.23"/>
<polygon fill="white" stroke="white" points="3571.43,-309.73 3581.36,-306.03 3571.29,-302.73 3571.43,-309.73"/>
</g>
<!-- _Core3d__Core3dMsaaWriteback -->
<g id="node33" class="node">
<title>_Core3d__Core3dMsaaWriteback</title>
<text text-anchor="start" x="1037.38" y="-307.7" font-family="Helvetica,sans-Serif" font-size="14.00" fill="white">MsaaWriteback</text>
<text text-anchor="start" x="994.62" y="-297.5" font-family="Helvetica,sans-Serif" font-size="10.00" fill="red">ViewNodeRunner&lt;MsaaWritebackNode&gt;</text>
<path fill="none" stroke="white" d="M1000.96,-291C1000.96,-291 1167.54,-291 1167.54,-291 1173.21,-291 1178.88,-296.67 1178.88,-302.33 1178.88,-302.33 1178.88,-313.67 1178.88,-313.67 1178.88,-319.33 1173.21,-325 1167.54,-325 1167.54,-325 1000.96,-325 1000.96,-325 995.29,-325 989.62,-319.33 989.62,-313.67 989.62,-313.67 989.62,-302.33 989.62,-302.33 989.62,-296.67 995.29,-291 1000.96,-291"/>
</g>
<!-- _Core3d__Core3dMsaaWriteback&#45;&gt;_Core3d__Core3dStartMainPass -->
<g id="edge32" class="edge">
<title>_Core3d__Core3dMsaaWriteback:e&#45;&gt;_Core3d__Core3dStartMainPass:w</title>
<path fill="none" stroke="white" d="M1176.88,-308C1222.21,-308 1236.34,-308 1276.55,-308"/>
<polygon fill="white" stroke="white" points="1276.49,-311.5 1286.49,-308 1276.49,-304.5 1276.49,-311.5"/>
</g>
<!-- _Core3d__Core3dOitResolvePass&#45;&gt;_Core3d__Core3dEndMainPass -->
<g id="edge25" class="edge">
<title>_Core3d__Core3dOitResolvePass:e&#45;&gt;_Core3d__Core3dEndMainPass:w</title>
<path fill="none" stroke="white" d="M2945,-285C3005.5,-285 3023.35,-282.35 3078.69,-282.03"/>
<polygon fill="white" stroke="white" points="3078.37,-285.53 3088.36,-282 3078.35,-278.53 3078.37,-285.53"/>
</g>
<!-- _Core3d__Core3dPostProcessing&#45;&gt;_Core3d__Core3dTonemapping -->
<g id="edge53" class="edge">
<title>_Core3d__Core3dPostProcessing:e&#45;&gt;_Core3d__Core3dTonemapping:w</title>
<path fill="none" stroke="white" d="M4282.5,-303C4320.26,-303 4330.71,-319.28 4363.14,-322.47"/>
<polygon fill="white" stroke="white" points="4362.83,-325.95 4372.99,-322.93 4363.16,-318.96 4362.83,-325.95"/>
</g>
<!-- _Core3d__Core3dPrepass -->
<g id="node36" class="node">
<title>_Core3d__Core3dPrepass</title>
<text text-anchor="start" x="114.12" y="-338.7" font-family="Helvetica,sans-Serif" font-size="14.00" fill="white">Prepass</text>
<text text-anchor="start" x="65" y="-328.5" font-family="Helvetica,sans-Serif" font-size="10.00" fill="red">ViewNodeRunner&lt;PrepassNode&gt;</text>
<path fill="none" stroke="white" d="M71.33,-322C71.33,-322 206.42,-322 206.42,-322 212.08,-322 217.75,-327.67 217.75,-333.33 217.75,-333.33 217.75,-344.67 217.75,-344.67 217.75,-350.33 212.08,-356 206.42,-356 206.42,-356 71.33,-356 71.33,-356 65.67,-356 60,-350.33 60,-344.67 60,-344.67 60,-333.33 60,-333.33 60,-327.67 65.67,-322 71.33,-322"/>
</g>
<!-- _Core3d__Core3dPrepass&#45;&gt;_Core3d__Core3dDeferredPrepass -->
<g id="edge43" class="edge">
<title>_Core3d__Core3dPrepass:e&#45;&gt;_Core3d__Core3dDeferredPrepass:w</title>
<path fill="none" stroke="white" d="M215.75,-339C268.72,-339 284.59,-345.05 332.34,-345.9"/>
<polygon fill="white" stroke="white" points="332.21,-349.4 342.24,-345.99 332.27,-342.4 332.21,-349.4"/>
</g>
<!-- _Core3d__Core3dSmaa -->
<g id="node37" class="node">
<title>_Core3d__Core3dSmaa</title>
<text text-anchor="start" x="4695.62" y="-382.7" font-family="Helvetica,sans-Serif" font-size="14.00" fill="white">Smaa</text>
<text text-anchor="start" x="4645" y="-372.5" font-family="Helvetica,sans-Serif" font-size="10.00" fill="red">ViewNodeRunner&lt;SmaaNode&gt;</text>
<path fill="none" stroke="white" d="M4651.33,-366C4651.33,-366 4775.92,-366 4775.92,-366 4781.58,-366 4787.25,-371.67 4787.25,-377.33 4787.25,-377.33 4787.25,-388.67 4787.25,-388.67 4787.25,-394.33 4781.58,-400 4775.92,-400 4775.92,-400 4651.33,-400 4651.33,-400 4645.67,-400 4640,-394.33 4640,-388.67 4640,-388.67 4640,-377.33 4640,-377.33 4640,-371.67 4645.67,-366 4651.33,-366"/>
</g>
<!-- _Core3d__Core3dSmaa&#45;&gt;_Core3d__Core3dEndMainPassPostProcessing -->
<g id="edge29" class="edge">
<title>_Core3d__Core3dSmaa:e&#45;&gt;_Core3d__Core3dEndMainPassPostProcessing:w</title>
<path fill="none" stroke="white" d="M4785.25,-383C4910.41,-383 4950.36,-406.48 5065.75,-358 5106.13,-341.03 5101.17,-296.6 5136.61,-289.09"/>
<polygon fill="white" stroke="white" points="5136.63,-292.6 5146.24,-288.15 5135.95,-285.63 5136.63,-292.6"/>
</g>
<!-- _Core3d__Core3dTonemapping&#45;&gt;_Core3d__Core3dContrastAdaptiveSharpening -->
<g id="edge22" class="edge">
<title>_Core3d__Core3dTonemapping:e&#45;&gt;_Core3d__Core3dContrastAdaptiveSharpening:w</title>
<path fill="none" stroke="white" d="M4550,-323C4586.71,-323 4595.35,-330.77 4632,-333 4704.42,-337.4 4722.73,-335.21 4795.25,-333 4827.61,-332.01 4838.35,-328.85 4865.82,-328.14"/>
<polygon fill="white" stroke="white" points="4865.78,-331.64 4875.74,-328.02 4865.69,-324.64 4865.78,-331.64"/>
</g>
<!-- _Core3d__Core3dTonemapping&#45;&gt;_Core3d__Core3dEndMainPassPostProcessing -->
<g id="edge26" class="edge">
<title>_Core3d__Core3dTonemapping:e&#45;&gt;_Core3d__Core3dEndMainPassPostProcessing:w</title>
<path fill="none" stroke="white" d="M4550,-323C4592.69,-323 4590.9,-284.54 4632,-273 4701.85,-253.38 4722.71,-271.46 4795.25,-273 4813.16,-273.38 5076.47,-285.6 5136.56,-287.7"/>
<polygon fill="white" stroke="white" points="5136.15,-291.18 5146.24,-287.96 5136.34,-284.19 5136.15,-291.18"/>
</g>
<!-- _Core3d__Core3dTonemapping&#45;&gt;_Core3d__Core3dFxaa -->
<g id="edge45" class="edge">
<title>_Core3d__Core3dTonemapping:e&#45;&gt;_Core3d__Core3dFxaa:w</title>
<path fill="none" stroke="white" d="M4550,-323C4588.66,-323 4599.31,-306.57 4632.72,-303.49"/>
<polygon fill="white" stroke="white" points="4632.53,-307.01 4642.36,-303.07 4632.22,-300.01 4632.53,-307.01"/>
</g>
<!-- _Core3d__Core3dTonemapping&#45;&gt;_Core3d__Core3dSmaa -->
<g id="edge49" class="edge">
<title>_Core3d__Core3dTonemapping:e&#45;&gt;_Core3d__Core3dSmaa:w</title>
<path fill="none" stroke="white" d="M4550,-323C4594.81,-323 4593.74,-373.56 4631.03,-381.85"/>
<polygon fill="white" stroke="white" points="4630.19,-385.29 4640.49,-382.84 4630.91,-378.32 4630.19,-385.29"/>
</g>
<!-- _Core3d__Core3dDeferredLightingPass&#45;&gt;_Core3d__Core3dMainOpaquePass -->
<g id="edge39" class="edge">
<title>_Core3d__Core3dDeferredLightingPass:e&#45;&gt;_Core3d__Core3dMainOpaquePass:w</title>
<path fill="none" stroke="white" d="M1745.25,-318C1784.9,-318 1792.31,-289.25 1825.92,-283.87"/>
<polygon fill="white" stroke="white" points="1826.04,-287.37 1835.74,-283.12 1825.5,-280.39 1826.04,-287.37"/>
</g>
<!-- _Core3d__Core3dScreenSpaceReflections -->
<g id="node41" class="node">
<title>_Core3d__Core3dScreenSpaceReflections</title>
<text text-anchor="start" x="65" y="-398.7" font-family="Helvetica,sans-Serif" font-size="14.00" fill="white">ScreenSpaceReflections</text>
<text text-anchor="start" x="29" y="-388.5" font-family="Helvetica,sans-Serif" font-size="10.00" fill="red">ViewNodeRunner&lt;ScreenSpaceReflectionsNode&gt;</text>
<path fill="none" stroke="white" d="M35.33,-382C35.33,-382 242.42,-382 242.42,-382 248.08,-382 253.75,-387.67 253.75,-393.33 253.75,-393.33 253.75,-404.67 253.75,-404.67 253.75,-410.33 248.08,-416 242.42,-416 242.42,-416 35.33,-416 35.33,-416 29.67,-416 24,-410.33 24,-404.67 24,-404.67 24,-393.33 24,-393.33 24,-387.67 29.67,-382 35.33,-382"/>
</g>
<!-- _CameraDriverLabel -->
<g id="node42" class="node">
<title>_CameraDriverLabel</title>
<text text-anchor="start" x="80" y="-481.7" font-family="Helvetica,sans-Serif" font-size="14.00" fill="white">CameraDriverLabel</text>
<text text-anchor="start" x="96.88" y="-471.5" font-family="Helvetica,sans-Serif" font-size="10.00" fill="red">CameraDriverNode</text>
<path fill="none" stroke="white" d="M86.33,-465C86.33,-465 191.42,-465 191.42,-465 197.08,-465 202.75,-470.67 202.75,-476.33 202.75,-476.33 202.75,-487.67 202.75,-487.67 202.75,-493.33 197.08,-499 191.42,-499 191.42,-499 86.33,-499 86.33,-499 80.67,-499 75,-493.33 75,-487.67 75,-487.67 75,-476.33 75,-476.33 75,-470.67 80.67,-465 86.33,-465"/>
</g>
</g>
</svg>
